<?xml version="1.0" encoding="UTF-8"?>
<svg id="story" xmlns="http://www.w3.org/2000/svg" viewBox="0 0 5760 1016.5">
  <g id="bush">
    <path d="M871.768,1031.26c-6.231,.251-12.496,.18-18.729,.011-8.972-.22-17.959-.588-26.941-1.032-16.07-.806-32.124-1.882-48.204-2.516-19.871-.792-39.742-1.584-59.598-1.758-15.047-.133-30.083,.919-45.14,1.008-8.762,.039-17.542-.96-26.315-1.217-23.011-.644-45.999,.047-68.974,.961-6.282,.248-12.564,.052-18.821-.143-16.307-.547-32.564,2.042-48.936,.455-8.05-.787-16.259,.418-24.41,.563-7.707,.121-15.4,.021-23.097-.03-1.258,.005-2.513-.064-3.738-.254-4.4-.759-5.696-2.311-5.474-6.839,.146-3.546,.563-7.102,.854-10.639,.856-12.045,4.531-23.244,9.401-34.206,6.047-13.563,14.529-25.165,25.769-34.841,4.557-3.92,8.399-8.719,13.049-12.512,13.097-10.709,26.919-20.193,42.976-26.372,11.091-4.254,22.106-8.512,33.809-10.858,8.833-1.762,17.681-2.93,26.757-1.916,4.759,.533,9.576,.451,14.377,.639,10.541,.405,20.692,2.935,30.432,6.676,11.26,4.343,22.374,9.122,33.382,14.068,2.915,1.32,5.648,3.641,7.813,6.055,6.764,7.625,13.624,15.255,19.667,23.434,4.041,5.503,7.454,11.71,9.919,18.064,2.88,7.339,4.723,15.139,6.398,22.881,1.735,7.943,2.624,16.061,4.062,24.06,.833,4.587,3.774,5.883,7.777,3.511,3.776-2.237,7.391-4.704,11.026-7.12,7.093-4.696,14.721-7.881,23.132-9.172,2.263-.346,4.433-1.19,6.641-1.834,17.704-5.174,35.062-3.977,52.086,2.804,7.173,2.835,14.347,5.696,21.27,9.036,10.073,4.87,15.895,13.924,21.339,23.131,1.963,3.365,.402,5.746-3.556,5.9Z" style="fill: #d7e550;"/>
    <path d="M538.354,1010.036c-3.318,.34-6.379,.936-9.441,.936-21.686,.114-43.459-1.247-65.005,.511-24.861,2.04-49.695,.879-74.5,1.786-7.229,.254-14.401,.68-21.63,.907-2.269,.056-4.565-.284-6.86-.368-7.484-.37-14.998-1.446-22.396-.879-12.417,.992-24.748,2.068-37.252,.821-4.223-.425-8.589,.823-12.898,.964-9.213,.255-18.511,.965-27.667,.227-10.377-.795-15.31-6.265-16.073-16.755-.454-6.009-.285-12.16,.481-18.171,1.616-12.842,.594-26.052,4.82-38.526,5.895-17.463,16.099-32.204,27.81-46.408,13.154-15.988,29.937-22.594,49.695-24.124,5.072-.398,10.118-1.843,15.168-1.957,21.202-.453,39.799,4.792,51.394,24.637,4.14,7.086,10.831,12.53,11.823,21.743,.338,2.978,5.301,5.472,8.815,8.844,4.989-9.468,10.831-14.457,20.469-13.011,1.36,.197,3.715,.113,4.14-.624,3.712-6.692,7.597-2.467,11.508-.455,9.84,5.046,19.364,10.518,24.834,20.781,3.998,7.54,5.955,15.336,4.028,24.04-.909,4.082-.285,8.504-.372,13.665,8.108-4.621,16.644-5.16,25.146-4.762,6.522,.338,13.439,.368,16.726,8.164,.793,1.841,3.43,2.948,5.271,4.308,11.2,8.391,14.089,19.704,11.966,33.707Z" style="fill: #d7e550;"/>
  </g>
  <g id="tree2">
    <path d="M760.602,862.569c-.016,3.928,1.189,7.889,2.022,11.802,1.515,7.09,6.34,12.372,10.057,18.256,2.819,4.45,6.863,7.531,10.954,10.563,1.223,.913,2.706,1.467,4.043,2.233,1.5,.864,1.907,2.119,1.092,3.668-1.256,2.38-1.24,4.939-1.125,7.515,.081,2.005,.146,3.994,.196,5.999,.065,2.494,.669,4.841,2.022,6.976,.293,.473,.766,.896,.896,1.402,1.549,6.293,7.156,8.852,11.672,12.259,2.673,2.021,6.032,3.26,9.227,4.449,1.792,.669,3.911,.815,5.852,.653,3.341-.278,6.586-.538,9.943,.212,2.022,.473,4.206,.31,6.309,.342,2.315,.049,4.629,.016,7.385,.016-.229,3.114-.441,5.739-.637,8.363-.162,2.331-.358,4.662-.455,6.993-.261,6.552-.131,13.154-.799,19.675-.7,6.83-2.103,13.595-3.26,20.359-.31,1.761,.261,2.739,2.038,2.348,3.456-.766,6.57,.016,9.765,1.223,3.373,1.271,6.829,.423,10.236-.098,1.288-.213,1.891-1.19,1.549-2.495-1.5-5.738-.309-11.736-1.891-17.507-.684-2.527-.342-5.314-.57-7.971-.669-7.971-1.385-15.926-2.071-23.881-.259-3.114-.228-3.684,2.886-4.792,6.552-2.331,10.758-7.32,15.029-12.324,.506-.587,1.076-1.125,1.565-1.728,1.794-2.249,3.847-4.336,5.314-6.781,3.962-6.536,7.956-13.089,11.379-19.919,2.787-5.542,4.515-11.557,5.721-17.687,.995-5.005,2.38-9.96,2.983-15.013,.587-4.939,.637-9.992,.457-14.964-.13-3.635-.914-7.253-1.565-10.856-.815-4.63-3.521-8.216-7.173-10.905-2.526-1.875-2.999-3.831-2.526-6.863,1.468-9.471,2.38-18.958,.162-28.51-1.108-4.776-1.695-9.667-3.797-14.149-3.131-6.651-7.141-12.764-12.144-18.126-3.163-3.375-6.423-6.684-9.911-9.699-1.517-1.32-3.749-1.793-5.624-2.722-2.884-1.451-5.737-2.967-8.607-4.45-.408-.196-.815-.473-1.238-.505-4.857-.359-9.683-1.761-14.574-.554-5.509,1.352-11.051,2.575-16.463,4.222-6.667,2.005-12.046,6.145-16.578,11.329-1.141,1.305-1.776,3.064-2.592,4.646-2.902,5.607-6.325,11.02-7.759,17.262-1.141,4.955-2.299,10.009-.506,15.128,.358,1.027,.358,2.168,.587,3.652-2.755,.602-5.232,1.125-7.694,1.711-5.853,1.402-9.944,4.711-12.617,10.335-3.424,7.172-6.473,14.41-7.547,22.332-.734,5.509-1.598,11.051-1.614,16.578Zm3.064-8.33c.212-4.092,1.027-8.15,1.581-12.21,.93-6.781,4.451-12.601,7.417-18.534,2.479-4.971,12.21-10.4,20.182-6.961,.065-1.19,.342-2.265,.162-3.243-.358-2.054-.946-4.059-1.484-6.08-1.092-4.125-.734-8.232,.457-12.21,2.168-7.27,5.413-14.084,9.65-20.392,3.048-4.532,7.108-8.085,12.16-10.123,5.771-2.315,11.638-4.369,17.85-5.363,5.494-.88,10.888-1.011,16.17,.7,6.813,2.185,13.155,5.51,18.323,10.433,3.064,2.917,6.455,5.542,8.9,9.226,3.879,5.82,7.808,11.411,10.139,18.192,2.56,7.417,2.69,15.029,3.699,22.593,.065,.538-.032,1.125-.129,1.663-.979,5.363-1.99,10.726-2.918,16.105-.213,1.157-.196,2.364-.261,3.212,2.461,1.5,5.021,2.364,6.471,4.124,3.13,3.765,5.656,7.971,5.64,13.22-.016,2.331,.489,4.645,.718,6.976,.113,1.207,.259,2.445,.228,3.652-.311,9.177-2.657,17.979-4.809,26.831-2.445,10.107-7.106,19.137-12.275,28.038-3.553,6.145-8.216,11.361-12.975,16.513-2.639,2.869-5.411,5.623-9.209,7.009-1.565,.587-3.13,1.206-4.955,.228-.358-2.266-.815-4.32-1.011-6.422-.522-5.315-.554-10.71-1.484-15.943-.912-5.232,3.943-14.521,5.785-19.395,1.401-3.733,2.803-7.466,4.188-11.215,2.445-6.553,4.793-13.154,7.335-19.675,1.81-4.663,3.929-9.194,5.804-13.824,.473-1.173,.554-2.494,.815-3.684-2.429-.913-8.371-.94-10.474-1.543-.651-.179-2.092,3.758-2.694,4.231-.457,.342-.572,1.157-.783,1.793-2.087,6.211-4.19,12.421-6.21,18.664-.653,2.006-.849,4.157-1.549,6.129-1.403,3.864-2.983,7.678-4.532,11.476-.18,.423-.653,.701-1.385,1.467-.326-3.652-.702-6.716-.864-9.796-.261-4.532-.228-9.08-.587-13.611-.293-3.619-1.392-10.376-1.947-14.142-1.417-.065-2.738-.228-4.058-.179-2.202,.081-4.215,1.76-3.677,3.929,.293,1.19,.7,5.583,.797,6.773,.668,7.32,2.61,14.557,3.164,21.877,.081,1.223,.522,2.657-1.223,3.928-1.141-1.744-2.168-3.391-3.26-5.004-2.022-3.033-4.141-5.999-6.079-9.08-1.974-3.13-5.298-5.33-6.016-9.356-.342-1.907-5.729-6.616-7.116-5.181-.847,.88-1.565,1.875-2.445,2.722-1.907,1.875-3.177,4.268-1.725,6.469,1.842,2.771,3.337,6.392,5.179,9.163,4.971,7.499,13.24,18.064,18.326,25.497,2.934,4.287,5.142,7.641,4.114,13.117-5.575-2.787-10.954-5.217-15.241-9.944-.718,.505-5.646,1.644-6.022,2.313-1.027,1.826-1.858,3.781-2.673,5.721-.637,1.565,.196,3.114,1.907,3.57,6.324,1.728,11.818,4.988,16.756,9.177,.914,.766,5.468,1.371,5.762,2.594,.309,1.223,.081,2.592,.081,3.815-2.479,.619-4.582,1.467-6.75,1.63-2.639,.196-5.33-.212-7.987-.326-2.673-.098-5.379-.456-8.004-.146-4.548,.537-8.623-.294-12.34-2.902-2.085-1.467-4.238-2.869-6.243-4.418-5.802-4.515-9.193-10.384-9.682-17.8-.099-1.565-.115-3.13-.228-4.679-.261-3.228,.896-5.884,3.227-8.053,.734-.7,1.761-1.418,1.027-2.478-.473-.684-1.565-1.369-2.364-1.353-1.842,.065-3.177-.75-4.548-1.744-1.254-.896-2.591-1.711-3.927-2.51-3.587-2.151-6.505-4.988-8.852-8.411-1.695-2.479-3.015-5.249-4.956-7.499-3.325-3.798-4.303-8.477-5.559-13.073-1.45-5.363-.766-10.857-.505-16.268Z" style="fill: #5e3c26;"/>
    <path d="M755.986,868.886c1.383,4.823,2.459,9.731,6.119,13.716,2.136,2.36,3.589,5.267,5.455,7.867,2.585,3.591,5.797,6.567,9.745,8.824,1.47,.838,2.942,1.693,4.323,2.634,1.509,1.043,2.979,1.898,5.007,1.83,.88-.017,2.082,.702,2.602,1.42,.808,1.112-.322,1.865-1.13,2.6-2.566,2.275-3.84,5.062-3.552,8.449,.124,1.625,.142,3.267,.251,4.909,.538,7.781,4.271,13.938,10.658,18.676,2.208,1.625,4.577,3.096,6.873,4.635,4.092,2.737,8.578,3.608,13.585,3.045,2.89-.325,5.869,.051,8.811,.154,2.925,.12,5.886,.548,8.792,.342,2.387-.171,4.702-1.061,7.43-1.71,0-1.283,.251-2.72-.089-4.003-.324-1.283-.952-2.753-1.957-3.557-5.436-4.395-11.484-7.816-18.446-9.629-1.884-.479-2.8-2.104-2.1-3.745,.897-2.035,1.812-4.087,2.942-6.003,.414-.702,1.453-1.061,2.243-1.591,4.719,4.96,10.641,7.508,16.778,10.433,1.132-5.746,.198-10.467-3.032-14.965-5.599-7.799-10.91-15.769-16.383-23.636-2.028-2.907-4.271-5.712-6.298-8.619-1.598-2.309-1.383-3.13,.717-5.097,.969-.888,1.759-1.932,2.692-2.856,1.526-1.505,3.948-1.162,4.325,.838,.79,4.225,4.449,6.533,6.622,9.816,2.134,3.233,4.467,6.345,6.692,9.527,1.202,1.693,2.332,3.421,3.589,5.25,1.921-1.334,1.435-2.839,1.346-4.121-.61-7.679-1.274-15.376-2.01-23.055-.107-1.248-.575-2.479-.897-3.728-.592-2.275,.61-3.968,3.033-4.054,1.453-.051,2.907,.12,4.467,.188,.612,3.951,1.383,7.696,1.705,11.493,.396,4.754,.359,9.526,.647,14.281,.179,3.232,.592,6.447,.952,10.278,.806-.803,1.326-1.095,1.525-1.539,1.705-3.985,3.445-7.987,4.989-12.04,.771-2.069,.987-4.326,1.705-6.431,2.224-6.55,4.539-13.066,6.836-19.582,.233-.667,.359-1.522,.862-1.881,.662-.496,1.74-.94,2.457-.753,2.315,.633,4.541,1.573,7.215,2.531-.287,1.248-.377,2.634-.897,3.865-2.064,4.858-4.397,9.612-6.389,14.504-2.799,6.841-5.383,13.767-8.075,20.642-1.525,3.933-3.069,7.85-4.611,11.766-2.028,5.114-2.548,10.262-1.544,15.751,1.023,5.49,1.058,11.151,1.633,16.727,.216,2.206,.719,4.361,1.113,6.738,2.01,1.026,3.733,.376,5.455-.24,4.181-1.454,7.232-4.344,10.138-7.354,5.24-5.405,10.373-10.878,14.284-17.325,5.69-9.339,10.821-18.813,13.513-29.417,2.369-9.287,4.952-18.522,5.294-28.151,.035-1.266-.126-2.565-.251-3.831-.252-2.446-.808-4.874-.79-7.32,.017-5.507-2.764-9.92-6.209-13.871-1.596-1.846-4.414-2.753-7.124-4.327,.072-.889,.053-2.155,.287-3.37,1.022-5.643,2.134-11.27,3.212-16.897,.107-.564,.214-1.18,.142-1.744-1.111-7.936-1.255-15.922-4.073-23.704-2.566-7.115-6.891-12.98-11.161-19.087-2.692-3.865-6.424-6.619-9.798-9.68-5.688-5.165-12.67-8.654-20.17-10.946-5.814-1.795-11.753-1.658-17.801-.735-6.838,1.043-13.297,3.198-19.65,5.627-5.562,2.138-10.031,5.865-13.387,10.62-4.665,6.618-8.236,13.767-10.623,21.395-1.311,4.174-1.705,8.483-.503,12.81,.592,2.12,1.239,4.224,1.633,6.379,.198,1.026-.107,2.155-.179,3.403-8.776-3.608-19.489,2.087-22.217,7.303-3.265,6.225-7.141,12.332-8.165,19.446-.61,4.259-1.507,8.517-1.74,12.81-.287,5.678-1.041,11.442,.556,17.068Zm23.132-16.145c.216-5.558,1.453-10.228,4.306-14.47,1.095-1.658,1.975-3.455,2.944-5.198,.287-.514,.431-1.198,.88-1.488,.519-.359,1.435-.667,1.919-.462,.449,.205,.825,1.146,.736,1.693-.126,.889-.575,1.779-1.041,2.583-1.256,2.138-2.637,4.19-3.876,6.328-2.045,3.522-3.301,7.251-3.032,11.339,.412,6.054,2.835,11.492,5.921,16.675,1.041,1.727,2.583,3.061,4.935,3.163,.699,.035,1.435,.342,2.064,.667,1.022,.513,1.346,1.403,.788,2.361-.555,.975-1.489,1.846-2.674,1.145-2.332-1.419-5.168-2.616-6.675-4.668-4.449-5.986-6.442-12.964-7.195-19.668Z" style="fill: #d7e550;"/>
  </g>
  <g id="tree1">
    <path d="M393.887,605.532c-2.697-19.887-10.349-38.053-18.944-56.056-6.709-14.115-16.978-22.422-31.67-25.94-6.178-1.472-12.395-2.783-19.311-4.295,.575-3.724,.575-6.589,1.474-9.166,4.499-12.848,1.595-25.533-1.27-37.971-3.6-15.669-12.191-29.255-19.475-43.329-2.046-3.97-3.64-8.387-6.505-11.662-11.376-13.01-24.877-23.403-41.611-28.436-13.586-4.134-27.495-7.202-41.324-10.597-12.275-3.029-24.39,.489-36.581,1.391-1.063,.082-2.085,.777-3.108,1.268-7.205,3.722-14.365,7.528-21.605,11.17-4.707,2.331-10.309,3.518-14.117,6.833-8.755,7.57-16.938,15.875-24.877,24.346-12.558,13.46-22.624,28.803-30.483,45.497-5.274,11.252-6.749,23.527-9.53,35.516-5.566,23.976-3.277,47.789,.407,71.562,1.187,7.612,0,12.52-6.341,17.227-9.166,6.751-15.959,15.751-18.005,27.373-1.634,9.042-3.6,18.124-3.928,27.249-.452,12.481-.328,25.165,1.146,37.562,1.515,12.684,4.991,25.121,7.488,37.684,3.029,15.385,7.364,30.483,14.361,44.394,8.591,17.143,18.616,33.592,28.561,49.998,3.68,6.137,8.835,11.376,13.338,17.022,1.227,1.515,2.657,2.863,3.928,4.338,10.72,12.56,21.277,25.081,37.723,30.933,7.816,2.781,7.896,4.213,7.244,12.029-1.722,19.967-3.52,39.933-5.198,59.942-.571,6.669,.288,13.665-1.43,20.008-3.972,14.485-.983,29.541-4.747,43.943-.859,3.275,.655,5.728,3.888,6.261,8.551,1.308,17.226,3.436,25.692,.245,8.02-3.029,15.835-4.993,24.51-3.069,4.459,.981,5.894-1.474,5.115-5.894-2.905-16.98-6.425-33.96-8.183-51.103-1.678-16.366-1.351-32.938-2.006-49.385-.243-5.852-.735-11.703-1.143-17.553-.491-6.587-1.023-13.176-1.598-20.992,6.916,0,12.727,.084,18.536-.04,5.278-.082,10.761,.328,15.835-.859,8.427-1.882,16.57-1.229,24.957-.532,4.871,.408,10.189,.04,14.688-1.638,8.02-2.985,16.451-6.095,23.159-11.168,11.336-8.553,25.409-14.976,29.297-30.771,.327-1.268,1.514-2.331,2.25-3.518,3.396-5.36,4.911-11.252,5.074-17.511,.124-5.033,.288-10.025,.491-15.058,.288-6.465,.328-12.888-2.825-18.862-2.046-3.888-1.023-7.038,2.741-9.206,3.356-1.924,7.081-3.314,10.149-5.606,10.269-7.61,20.418-15.344,27.494-26.514,9.33-14.77,21.441-28.028,25.245-45.825,2.09-9.822,5.115-19.765,5.075-29.624-.04-13.871-2.21-27.782-4.052-41.611Zm-4.907,61.538c-3.153,11.538-5.606,23.281-13.953,32.815-4.871,5.646-8.183,12.601-12.439,18.822-5.894,8.591-13.218,15.711-22.22,21.112-3.352,2.006-6.709,4.052-9.857,6.301-3.441,2.495-6.793,4.541-11.416,4.377-2.006-.04-4.747,1.678-5.934,3.396-1.842,2.661,.735,4.462,2.577,6.219,5.85,5.442,8.755,12.111,8.099,20.213-.284,3.888-.324,7.815-.571,11.743-1.227,18.616-9.738,33.346-24.302,44.68-5.035,3.888-10.437,7.406-15.671,11.088-9.33,6.547-19.559,8.633-30.975,7.284-6.589-.777-13.382,.122-20.09,.367-6.669,.288-13.422,1.311-20.047,.819-5.442-.41-10.721-2.537-16.942-4.092,0-3.069-.571-6.507,.204-9.576,.739-3.069,12.17-4.587,14.463-6.511,12.395-10.515,26.184-18.698,42.059-23.035,4.295-1.145,6.385-5.033,4.787-8.96-2.046-4.869-4.132-9.778-6.709-14.361-.943-1.678-13.313-4.537-15.115-5.806-10.761,11.865-24.262,17.963-38.255,24.959-2.581-13.747,2.962-22.165,10.326-32.926,12.766-18.658,33.521-45.178,46-64,4.623-6.955,8.377-16.045,13-23,3.644-5.524,.456-11.531-4.331-16.238-2.209-2.126-4.012-4.623-6.137-6.833-3.48-3.6-17.002,8.219-17.862,13.006-1.802,10.107-10.145,15.629-15.1,23.485-4.867,7.734-10.185,15.18-15.26,22.792-2.741,4.049-5.318,8.183-8.183,12.56-4.379-3.191-3.272-6.791-3.069-9.86,1.391-18.372,6.263-36.54,7.941-54.912,.244-2.986,1.265-14.014,2-17,1.351-5.442-3.703-9.657-9.229-9.861-3.313-.122-6.629,.286-10.185,.45-1.394,9.452-4.153,26.412-4.888,35.496-.903,11.374-.819,22.789-1.475,34.165-.408,7.732-1.351,15.424-2.17,24.59-1.838-1.922-3.024-2.619-3.476-3.682-3.888-9.534-7.855-19.107-11.376-28.805-1.758-4.95-2.25-10.351-3.888-15.385-5.07-15.669-10.349-31.259-15.587-46.848-.532-1.597-.819-3.642-1.966-4.501-1.51-1.187-5.127-11.068-6.761-10.619-5.279,1.515-20.194,1.583-26.291,3.874,.655,2.987,.859,6.302,2.046,9.246,4.707,11.621,10.025,22.995,14.568,34.699,6.381,16.366,12.275,32.937,18.412,49.385,3.476,9.41,6.997,18.78,10.513,28.15,4.623,12.235,16.81,35.55,14.52,48.683-2.333,13.134-2.413,26.677-3.724,40.017-.491,5.277-1.638,10.433-2.537,16.121-4.583,2.454-8.511,.899-12.439-.573-9.534-3.478-16.49-10.393-23.115-17.593-11.948-12.93-23.651-26.024-32.569-41.448-12.974-22.342-24.674-45.008-30.811-70.377-5.402-22.218-11.292-44.313-12.071-67.348-.08-3.029,.288-6.137,.572-9.166,.575-5.851,1.842-11.659,1.802-17.511-.04-13.176,6.302-23.733,14.157-33.184,3.64-4.417,10.065-6.587,16.242-10.351-.164-2.128-.12-5.156-.655-8.061-2.329-13.502-4.867-26.963-7.324-40.425-.244-1.349-.487-2.823-.324-4.173,2.533-18.986,2.861-38.091,9.286-56.709,5.85-17.022,15.711-31.055,25.449-45.663,6.137-9.246,14.648-15.835,22.34-23.157,12.97-12.357,28.889-20.704,45.991-26.188,13.258-4.295,26.799-3.968,40.588-1.758,15.591,2.495,30.319,7.65,44.804,13.462,12.682,5.115,22.871,14.033,30.523,25.409,10.637,15.833,18.78,32.937,24.222,51.185,2.989,9.985,3.888,20.294,1.146,30.647-1.35,5.073-2.825,10.105-3.724,15.262-.452,2.455,.243,5.155,.408,8.141,20.01-8.632,44.436,4.993,50.658,17.472,7.444,14.894,16.283,29.502,18.616,46.522,1.39,10.189,3.436,20.376,3.968,30.647,.655,13.583,2.374,27.373-1.267,40.834Z" style="fill: #5e3c26;"/>
    <path d="M410.919,620.157c-.585-10.776-2.837-21.464-4.368-32.154-2.569-17.857-12.299-33.184-20.494-48.81-6.849-13.092-33.738-27.388-55.766-18.331-.181-3.133-.946-5.965-.449-8.541,.99-5.41,2.613-10.69,4.099-16.012,3.018-10.862,2.028-21.678-1.262-32.154-5.991-19.146-14.956-37.091-26.665-53.703-8.423-11.935-19.64-21.292-33.601-26.658-15.945-6.098-32.159-11.506-49.322-14.124-15.18-2.318-30.087-2.662-44.682,1.845-18.826,5.754-36.351,14.512-50.629,27.476-8.468,7.682-17.836,14.595-24.593,24.296-10.72,15.327-21.576,30.05-28.016,47.909-7.073,19.534-7.434,39.579-10.222,59.498-.18,1.417,.088,2.964,.356,4.379,2.705,14.123,5.498,28.247,8.063,42.413,.59,3.048,.541,6.225,.722,8.458-6.801,3.949-13.874,6.225-17.881,10.86-8.648,9.916-15.628,20.992-15.585,34.816,.044,6.14-1.35,12.233-1.984,18.373-.312,3.178-.717,6.439-.629,9.617,.858,24.168,7.341,47.349,13.288,70.66,6.756,26.617,19.636,50.397,33.918,73.838,9.818,16.182,22.701,29.92,35.854,43.486,7.293,7.555,14.951,14.809,25.446,18.458,4.324,1.545,8.648,3.176,13.693,.601,.99-5.967,2.252-11.377,2.793-16.913,1.443-13.996,1.531-28.205,4.1-41.985,2.521-13.78,1.214-26.7-3.875-39.537-3.87-9.831-7.746-19.662-11.573-29.534-6.756-17.257-13.244-34.642-20.269-51.814-5.001-12.279-10.856-24.213-16.037-36.405-1.307-3.09-1.531-6.567-2.252-9.701,6.712-2.404,12.298-4.764,18.109-6.353,1.799-.471,4.504,.643,6.167,1.889,1.263,.901,1.579,3.047,2.164,4.723,5.767,16.356,11.577,32.712,17.159,49.152,1.804,5.282,2.345,10.948,4.28,16.142,3.875,10.175,8.243,20.219,12.523,30.222,.497,1.115,1.804,1.847,3.827,3.863,.902-9.617,1.94-17.687,2.389-25.799,.722-11.935,.629-23.912,1.623-35.846,.809-9.531,2.744-18.932,4.28-28.849,3.915-.172,7.566-.599,11.212-.472,6.083,.214,9.101,4.465,7.614,10.175-.809,3.133-1.984,6.223-2.252,9.357-1.847,19.276-3.514,38.594-5.045,57.87-.224,3.22-1.443,6.997,3.378,10.344,3.154-4.592,5.991-8.93,9.008-13.178,5.587-7.986,11.441-15.799,16.799-23.913,5.454-8.242,14.639-14.035,16.622-24.64,.946-5.022,7.025-5.882,10.856-2.104,2.34,2.318,4.324,4.938,6.756,7.169,5.27,4.938,5.81,6.999,1.799,12.795-5.089,7.297-10.72,14.337-15.809,21.634-13.737,19.748-27.069,39.753-41.123,59.328-8.107,11.29-10.452,23.139-7.61,37.562,15.404-7.34,30.267-13.738,42.113-26.187,1.984,1.331,4.592,2.232,5.63,3.993,2.837,4.808,5.133,9.959,7.386,15.067,1.759,4.121-.541,8.2-5.27,9.401-17.476,4.551-32.656,13.137-46.3,24.168-2.525,2.018-4.099,5.71-4.913,8.93-.853,3.22-.224,6.827-.224,10.047,6.849,1.631,12.66,3.863,18.65,4.293,7.293,.516,14.727-.558,22.068-.859,7.385-.258,14.863-1.201,22.116-.385,12.567,1.415,23.828-.774,34.099-7.643,5.762-3.863,11.709-7.555,17.252-11.634,16.033-11.891,25.403-27.346,26.753-46.877,.273-4.121,.317-8.242,.629-12.321,.722-8.5-2.476-15.497-8.916-21.207-2.028-1.844-4.865-3.733-2.837-6.525,1.307-1.803,4.324-3.605,6.532-3.563,5.089,.172,8.78-1.974,12.567-4.592,3.466-2.36,7.161-4.507,10.851-6.611,9.91-5.666,17.973-13.137,24.461-22.15,4.685-6.527,8.331-13.824,13.693-19.748,9.189-10.003,11.889-22.324,15.36-34.429,4.007-14.123,2.116-28.591,1.394-42.843Zm-77.518,51.686c-3.783,5.15-10.9,8.156-16.754,11.717-2.974,1.76-5.318-.428-6.712-2.874-1.399-2.404-.585-4.638,1.979-5.926,1.579-.815,3.427-1.587,5.182-1.675,5.903-.258,9.774-3.605,12.387-7.94,7.746-13.009,13.829-26.66,14.863-41.855,.677-10.26-2.476-19.62-7.609-28.461-3.11-5.366-6.576-10.518-9.73-15.884-1.17-2.018-2.296-4.251-2.613-6.483-.224-1.373,.722-3.735,1.848-4.249,1.214-.516,3.514,.258,4.816,1.159,1.126,.73,1.487,2.446,2.208,3.736,2.433,4.377,4.641,8.885,7.39,13.048,7.161,10.646,10.266,22.368,10.807,36.32-1.891,16.828-6.893,34.343-18.061,49.368Z" style="fill: #d7e550;"/>
  </g>
  <path id="carPath" d="M0,1000c263.331-47.38,475.208-57.422,621.656-57.6,91.098-.111,104.713,3.659,299.618,6,271.468,3.26,467.034-1.388,507.516-2.4,188.641-4.717,314.463-2.532,486.21-24,8-1,28.612-8.529,33-9" style="fill: none; stroke: #e5e5e5; stroke-miterlimit: 10; stroke-width: 6px;"/>
  <g id="car">
    <path d="M47.969,958.061s-19.78,2.864-21.261,1.871c-1.482-1.003-2.722-8.474-2.372-10.579,.341-2.094,16.917-2.469,18.71-2.863,1.784-.382,4.923,11.571,4.923,11.571Z" style="fill: #475254;"/>
    <path d="M78.775,907.197c-5.707,10.528-30.407,5.956-38.199,15.901-7.781,9.953,4.434,38.322,4.434,38.322,.001,.01,22.319,2.076,63.911-5.664,27.337-5.082,257.091-33.183,257.091-33.183,0,0,2.525-25.236-4.896-33.377-7.419-8.13-33.648-16.176-57.171-16.249-12.389-35.797-25.978-82.198-112.646-73.407-81.355,8.269-106.815,97.14-112.524,107.658Zm172.904-71.792c16.523,12.722,28.565,51.558,28.565,51.558,0,0-70.422,14.476-74.331,8.581,0,0-10.299-59.084-7.129-67.152,.794-2.009,3.493-3.368,7.31-4.083,11.449-2.156,33.195,1.553,45.586,11.097Zm-80.495-3.995c5.817,5.874,18.213,67.146,10.495,67.507-5.163,.239-51.191,7.321-70.136,5.21-.588-46.21,41.062-71.719,55.374-73.441,2.045-.24,3.547-.006,4.267,.724Z" style="fill: #efbde6;"/>
    <path d="M366.551,891.468c-3.838-2.861-19.973,9.839-19.165,17.979,.809,8.15,20.498,10.337,23.492,8.906,2.995-1.421,1.829-22.285-4.326-26.884Z" style="fill: #ebce38;"/>
    <path d="M135.215,931.083c40.955-.787,35.241,49.808,2.301,52.618-34.723,2.972-32.998-52.039-2.301-52.618Z" style="fill: #475254;"/>
    <path d="M133.37,948.615c-9.8,2.464-9.033,18.985,3.838,17.861,13.091-1.133,15.04-15.541,.987-17.96-1.828-.315-3.425-.252-4.826,.099Z" style="fill: #fff;"/>
    <path d="M285.208,962.696c33.223-3.573,27.4-48.925-2.035-46.882-33.241,2.306-27.931,50.101,2.035,46.882Z" style="fill: #475254;"/>
    <path d="M285.172,948.509c12.567-1.355,10.418-18.158-.715-17.368-12.568,.893-10.61,18.594,.715,17.368Z" style="fill: #fff;"/>
  </g>
  <path id="planePath" d="M1915,922c44.243-11.068,115.036-33.648,192-64,138.447-54.6,232.729-115.621,273-141,94.552-59.587,405.706-250.619,492-253,45.198-1.247,90.778,3.622,90.778,3.622,0,0,16.602,1.774,33.222,4.378,93.466,14.647,225.715,94.106,322,78,82.346-13.774,165.378-101.963,157-179-9.482-87.188-135.684-156.739-226-138-149.466,31.012-265.188,317.228-173,504,90.483,183.319,347.519,202.479,435,209,131.042,9.768,237.832-19.072,302-42" style="fill: none; stroke: #e5e5e5; stroke-miterlimit: 10; stroke-width: 6px;"/>
  <g id="plane">
    <path d="M1950.409,923.74l6.395,16.623c.297,1.056,1.343,1.76,2.421,1.552,.909-.175,1.958-.708,2.769-2.066,1.802-3.018,8.784-16.266,9.007-17.85,.197-1.398-4.675-.329-5.824-.058-.165,.039-.329,.058-.498,.058l-12.185-1.009c-1.435-.001-2.473,1.368-2.085,2.749Z" style="fill: #ebce38;"/>
    <path d="M1940.775,901.158l-24.444,17.437c-1.377,.926-1.372,2.975,.034,3.857,1.251,.785,3.179,1.454,6.111,1.438,7.025-.039,27.987-.674,30.929-1.471,2.209-.598,2.605-4.27,2.666-6.064,.021-.615-.214-1.211-.64-1.655l-11.702-13.223c-.776-.811-2.023-.945-2.954-.319Z" style="fill: #ebce38;"/>
    <path d="M1959.112,889.97l-20.035-11.145s-3.569,1.227-2.988,4.723c.581,3.496,3.237,13.623,3.782,15.193,1.13,3.259,2.13,3.259,2.13,3.259l17.112-12.03Z" style="fill: #ebce38;"/>
    <path d="M1953.057,923.25c.381-.173,.785-.271,1.203-.291,6.927-.327,69.268-3.331,78.953-6.057,10.258-2.887,48.136-17.556,56.733-32.325,8.597-14.768,8.135-27.537,2.272-32.844-5.862-5.306-32.611-16.165-44.439-10.874-11.828,5.291-56.342,23.738-62.704,29.475-6.363,5.737-30.848,18.534-35.587,21.519-2.919,1.838-6.325,5.236-8.511,7.575-1.222,1.307-.695,2.992,.079,4.606,.944,1.967,2.987,4.915,3.944,7.967,.786,2.506,2.459,6.743,3.646,9.533,.727,1.711,2.718,2.484,4.411,1.717h0Z" style="fill: #efbde6;"/>
    <path d="M2072.799,890.103s12.006-14.259,7.058-23.114-13.155-16.283-16.469-15.975-6.998,2.444-6.998,2.444c0,0,9.445,14.429,10.286,18.062s4.081,17.363,4.081,17.363l2.042,1.219Z" style="fill: #ebce38;"/>
    <path d="M1987.751,870.631l48.2-24.481s-23.386-21.027-44.262-32.949-38.583-22.496-46.828-22.904c-8.245-.408-14.922-1.324-12.808,4.814,2.114,6.139,14.692,18.952,21.049,25.244,6.357,6.292,25.34,28.907,28.947,36.347,3.606,7.44,5.703,13.93,5.703,13.93Z" style="fill: #efbde6;"/>
    <path d="M2009.759,916.461l47.067-14.674s-1.9,28.617-7.953,49.689c-6.052,21.072-10.894,39.247-16.021,44.759-5.127,5.513-8.906,10.36-11.431,5.004-2.525-5.356-2.46-21.73-2.31-29.885,.15-8.156-1.837-35.009-4.215-42.164-2.378-7.155-5.137-12.729-5.137-12.729Z" style="fill: #efbde6;"/>
  </g>
  <g id="maid">
    <path d="M3807.046,825.68s-12.37,19.719-10.068,33.536c0,4.835,3.684,12.666,2.762,17.962-.689,1.382-5.756,8.751-5.756,8.059s-18.653-10.593-14.738-34.311c1.15-2.993,10.104-22.288,25.892-25.881,2.663-.14,1.908,.636,1.908,.636Z" style="fill: #fff; fill-rule: evenodd;"/>
    <path d="M3843.034,821.449c1.382,2.532,2.162,3.594,2.162,3.594,0,0-6.334,39.709,10.49,45.46-.446,1.147-1.598,3.909-1.598,3.909l-3.686,1.613v50.201s-46.285,3.224-53.885-3.224c0-8.06,1.382-23.718,1.382-23.718l2.533-24.872s-9.21-13.74-2.071-32.622c1.611-5.987,8.685-16.111,8.685-16.111l35.988-4.23Z" style="fill: #f7a1a1; fill-rule: evenodd;"/>
    <g>
      <path d="M3835.021,827.269c-2.529,5.205-.721,14.628-1.503,21.583-7.99-.025-18.03,1.966-25.199-.281-.1-7.013,2.082-14.434,3.813-20.666-1.428-1.008-3.657-1.218-5.085-2.226-5.155,10.584-11.321,18.838-10.375,32.23,.338,4.776,3.053,8.405,3.684,13.355,.545,4.282-.06,10.316-.92,15.814-1.661,10.605-2.875,22.018-2.611,35.003,8.01,4.543,24.462,5.511,37.614,4.912,5.339-.242,10.892-.254,14.891-2.456,.85-16.287-.108-33.634,.614-50.356,1.532-1.469,3.436-1.183,2.565-3.995-.474-1.525-2.072-1.162-3.815-1.908-5.703-7.49-6.625-23.597-6.043-36.878,.15-3.359,.09-7.406,1.593-9.536,13.772,2.862,19.351,15.583,27.5,24.071,7.276-3.851,12.977-10.617,19.868-14.853,1.195-4.527,3.209-8.235,7.947-9.218-.796-4.291-.952-9.222-1.272-13.99-12.42,2.981-15.418-3.27-8.265-6.675-6.457-1.168-10.904-7.467-2.545-9.857-4.834-2.134-6.092-6.341-1.589-7.948-1.815-2.21-4.239-3.812-3.816-8.264,.615-1.186,2.159-1.445,3.498-1.907-1.171-2.116-2.202-4.369-1.907-7.949,.609-.977,2.52-1.263,3.813-.635-.291-1.843-.781-4.759,.637-5.723,1.421-1.335,3.096,.092,4.133,.955,.509-4.898,6.2-5.412,7.947-1.273,2.291-5.408,9.394-6.43,8.265,2.861,6.262-2.572,8.366,5.872,4.769,9.854,3.694,3.591,3.726,12.539-1.589,14.308,4.306,.955,6.255,7.81,.954,9.218,1.769,1.399,2.818,2.986,2.542,5.086-.267,2.044-1.647,1.499-3.496,3.496-.698,.753-.811,2.317-1.59,2.861-1.498,1.049-4.144,.721-5.404,.956,.428,4.338,.543,10.381,.565,15.128,8.712,3.8,7.139,15.889-.23,21.417-.331,.335-2.924,1.94-3.195,1.286-3.096,4.746-20.099,21.577-26.819,21.127-7.83-.524-12.325-8.014-18.644-10.955-.278,5.099,2.075,11.618-.636,15.258-.266,4.179,.567,7.956,1.589,12.083,1.307,5.265,4.477,12.143-.318,14.304,.269,3.31,1.312,6.231,1.273,9.856-.047,4.377-2.214,7.904-2.862,11.763-1.303,7.768,.495,19.587,0,30.838-.468,10.667-.978,20.926-1.907,28.93-.927,7.995,1.716,15.155-4.133,19.71-2.92,2.276-10.293,2.647-15.577,4.134-4.138,1.162-16.188,5.691-13.988-4.77,1.294-6.144,9.958-10.412,15.259-13.034-2.426-17.714-4.191-35.442-5.086-54.362-2.023-.628-6.349-.054-8.547-.503-1.892,23.388-4.339,46.424-2.898,70.443-6.221,3.121-34.515,9.706-34.97-1.908-.309-7.88,10.347-8.945,15.261-13.034-.947-19.251-.605-39.149,.317-58.177-7.411-1.019-4.694-15.303-4.132-23.526,.251-3.67,1.516-8.165,.954-9.856-.803-2.416-5.807-2.411-4.132-6.993-7.954-6.592-25.052-28.49-6.359-48.005,4.419-4.613,16.353-14.984,18.757-13.352-6.366,3.528-12.436,8.147-17.168,14.305-4.383,5.706-8.39,11.201-6.995,22.573,.986,8.028,7.551,15.447,12.399,20.346,1.848-1.687,3.084-5.196,5.722-5.087,.636-8.264-3.903-13.112-4.132-20.347-.193-6.063,2.068-12.235,4.132-17.485,1.999-5.079,3.822-10.334,6.995-14.305-9.423-4.775-15.685-14.598-15.99-28.234-.085-3.817-.422-9.264,.614-13.817,.543-2.387-1.849-4.258-2.427-6.59-3.061-12.303,5.419-25.067,11.761-30.837,7.866-7.153,16.881-12.378,30.838-12.082,2.468-10.167,9.834-22.311,22.254-22.254,12.832,.059,20.401,11.131,19.399,25.016-.541,7.499-4.836,13.125-8.751,15.428,4.606,12.435,6.218,27.633,.23,40.529-.575,1.238-3.224,4.606-5.065,5.987-.387,.289,4.067,1.996,4.677,5.869,1.265,8.029-6.288,13.28-13.353,11.764-3.839,4.742-7.578,9.589-14.306,11.445Zm30.519-107.136c-2.998-3.891-9.653-6.326-13.668-6.358-11.035-.088-17.402,11.342-19.711,20.345,8.493-.286,13.246,1.927,19.076,4.769,5.343,2.607,9.263,6.39,11.443,10.809,6.481-5.529,8.512-22.242,2.861-29.565Zm-5.085,33.38c1.225-5.025-3.908-9.301-7.947-11.762-2.046-1.246-5.111-2.081-7.63-3.18-3.06-1.333-5.708-2.942-7.949-3.178-3.355-.354-8.448,.238-10.49,.318-19.774,.761-37.029,16.441-36.877,36.559,.014,2.023,.289,4.112,1.27,6.041,2.41-5.931,3.691-13.07,7.632-17.485,1.337-1.501,3.774-2.289,6.356-3.815,1.98-1.169,3.55-3.308,5.406-4.451,7.154-4.41,17.352-5.157,26.385-1.588,9.939,3.922,14.473,9.217,18.122,19.709,2.762,7.938,4.178,16.233,2.225,24.796,9.378-6.329,8.618-31.373,3.498-41.964Zm-64.218,14.624c-6.906,13.274-5.754,37.651,2.226,47.369,6.087,7.416,18.761,12.018,30.836,10.491,6.551-.828,13.605-5.964,17.168-10.809,4.144-5.635,8.115-19.151,8.583-28.93,.438-9.107-4.101-17.725-7.311-22.89-.884-1.421-1.725-3.202-2.543-4.132-4.074-4.62-16.903-8.59-25.75-6.995-.32-.003-.38,.259-.637,.318,.821,5.179,2.833,10.641,6.359,14.306,1.874,1.947,4.827,2.958,5.404,5.403-11.341,.751-14.006-10.232-13.353-19.391-2.19,1.097-4.742,1.829-6.36,3.498,1.985,5.961,5.703,11.887,8.267,16.211-5.948-2.32-9.104-7.428-10.491-14.304-1.956,.903-4.158,1.563-5.087,3.496,1.033,3.964,4.309,7.329,4.45,11.127-3.604-2.331-6.461-5.405-6.993-10.81-1.92,2.001-3.633,3.859-4.768,6.04Zm103.957-6.358c-2.187,.098-2.295-2.605-4.452-3.496-1.634,1.67-.17,4.475-2.225,5.085-1.931,.573-2.877-3.134-4.132-2.225-.64,3.334,1.613,5.322,1.272,7.311-2.613,.072-2.914-2.171-5.404-2.225-.794,3.894,2.609,6.27,3.813,9.219-2.293,.085-3.671-.564-5.086,.635,.766,4.11,4.689,5.063,6.041,8.584-.902,1.008-3.168,.647-4.451,1.273,.545,3.374,4.024,3.82,5.087,6.675-1.564,.556-3.956,.284-5.087,1.273-.451,5.22,5.998,3.538,6.676,7.629-.961,1.265-2.986,1.465-4.133,2.543,1.1,3.322,6.527,3.07,9.854,1.908-.029-1.302,.045-2.499,1.273-2.544,1.41,1.456,6.123,1.306,8.584,.319-.427-.21-.595-.68-.637-1.271,.643-2.007,3.689-1.612,4.452-3.498-5.997-3.085-1.172-5.697,1.271-8.902-1.08-2.098-5.178-1.179-5.723-3.814,1.504-3.332,4.638-3.134,5.405-6.04,1.25-4.74-2.205-5.83-2.544-8.267-.398-2.856,2.817-4.948,1.59-7.629-2.2-.081-2.837,1.401-4.769,1.589-2.593-1.008-.248-6.957-1.907-8.902-2.185,1.179-2.478,4.667-4.769,4.768Zm-48.957,50.866c4.078-.159,6.484-1.992,8.582-4.131,.337-4.258-1.279-6.565-3.815-7.95-1.373,4.245-3.143,8.09-4.768,12.081Zm50.864,9.221c1.943-2.181,.586-7.131,.318-10.81-.095-1.304,.615-3.085-.635-3.814h-.637c-.39,4.329-.704,11.285,.954,14.624Zm-4.768,8.899c.566-1.129,2.471-.92,3.496-1.588,.207-2.116-.958-2.855-1.271-4.452-3.623,.298-4.793,3.049-6.04,5.723,3.899,2.777,5.388,7.964,7.63,12.397,5.108-2.309,7.066-7.767,6.994-15.26-1.461-2.574-3.504-2.667-5.722-2.861,5.09,3.509-3.159,12.841-5.087,6.039Zm-52.137-4.767c-.773,11.89,.306,23.537,2.86,32.109,1.066,3.576,2.048,8.581,6.041,8.902-.575-4.857-1.878-11.727,0-16.214,3.76,1.732,6.725,3.958,10.174,6.677,2.822,2.225,6.692,6.418,10.49,6.676,4.039,.273,5.762-2.651,8.266-4.452,5.627-4.045,11.715-9.317,14.941-14.623-2.082-3.64-3.802-7.642-5.721-11.445-3.557,2.349-6.229,4.744-10.175,7.63-2.041,1.493-8.069,7.432-11.125,6.993-1.39-.199-4.481-4.052-6.04-6.04-1.924-2.449-3.342-5.522-4.769-7.311-3.499-4.383-9.382-8.834-14.941-9.855v.954Zm-31.473,2.225c-1.079,6.023-3.389,10.813-3.18,18.121,6.102,1.687,14.183,.632,21.3,.635,.517-6.365-1.442-13.455,.636-18.438-5.607,1.409-13.246,.375-18.756-.318Zm38.149,48.003v18.44c1.929,.021,3.236-.579,4.768-.954-.909-6.108-3.917-11.737-3.496-18.121-.472,.166-.801,.47-1.272,.635Zm-55.318,11.764c.479-2.49,1.431-6.196,.954-8.583-1.67,2.034-4.649,6.603-.954,8.583Zm55.954,9.855c-.712,5.114-.344,13.363-.636,20.664-.139,3.447,.912,7.784-1.91,9.537-5.996-.417-9.671,1.778-17.166,1.272,.204,19.401,3.051,36.159,5.087,53.727,3.769-.174,7.75-1.756,11.762-.636,1.472-9.471,1.87-19.859,2.544-30.519,.697-11.031-.761-22.294,.318-32.745,.261-2.533,1.616-5.125,1.907-7.629,.569-4.901-.695-9.781,.318-13.99h-.636c-.37,.266-.853,.42-1.589,.318Zm-50.867,86.79c4.552,.289,9.171,.478,13.67,0,.69-18.492,2.279-37.777,3.179-54.998-6.682-.205-13.253-.524-17.803-2.861,.297,18.507-1.302,39.867,.954,57.86Zm33.698,1.589c-5.356,3.667-13.424,6.268-13.352,14.308,3.045,2.713,7.008-.121,11.127-1.272,8.925-2.498,18.077-1.784,16.847-13.036-4.972-1.21-10.295,2.333-14.623,0Zm-35.923,1.273c-2.103,3.4-14.887,4.642-13.989,10.49,.319,2.09,3.948,3.307,6.675,3.498,7.182,.502,18.319-1.316,23.844-3.498v-10.809c-5.441,.56-11.319,2.122-16.531,.318Z" style="fill-rule: evenodd;"/>
      <path d="M3862.68,749.698c-2.18-4.419-6.1-8.202-11.443-10.809-5.831-2.843-10.583-5.055-19.076-4.769,2.309-9.002,8.677-20.433,19.711-20.345,4.016,.032,10.67,2.467,13.668,6.358,5.652,7.323,3.621,24.036-2.861,29.565Z" style="fill: #7b5527; fill-rule: evenodd;"/>
      <path d="M3856.957,795.477c1.954-8.564,.538-16.858-2.225-24.796-3.649-10.491-8.183-15.787-18.122-19.709-9.033-3.569-19.231-2.823-26.385,1.588-1.856,1.143-3.426,3.281-5.406,4.451-2.582,1.526-5.019,2.314-6.356,3.815-3.941,4.415-5.222,11.555-7.632,17.485-.981-1.93-1.256-4.018-1.27-6.041-.152-20.118,17.104-35.798,36.877-36.559,2.043-.079,7.135-.671,10.49-.318,2.242,.236,4.889,1.845,7.949,3.178,2.519,1.098,5.583,1.934,7.63,3.18,4.039,2.461,9.173,6.738,7.947,11.762,5.119,10.591,5.88,35.635-3.498,41.964Z" style="fill: #7b5527; fill-rule: evenodd;"/>
      <path d="M3801.005,762.096c.532,5.404,3.389,8.479,6.993,10.81-.141-3.798-3.417-7.163-4.45-11.127,.929-1.932,3.131-2.592,5.087-3.496,1.387,6.876,4.544,11.984,10.491,14.304-2.564-4.324-6.281-10.25-8.267-16.211,1.617-1.67,4.169-2.402,6.36-3.498-.653,9.159,2.011,20.142,13.353,19.391-.578-2.446-3.531-3.456-5.404-5.403-3.526-3.666-5.538-9.128-6.359-14.306,.257-.058,.317-.32,.637-.318,8.847-1.596,21.676,2.375,25.75,6.995,.818,.929,1.659,2.71,2.543,4.132,3.21,5.165,7.749,13.783,7.311,22.89-.469,9.779-3.574,23.185-7.717,28.821-3.563,4.844-10.489,10.378-17.042,11.206-12.075,1.527-26.405-1.382-33.313-10.593-7.546-10.06-7.647-34.283-.741-47.556,1.135-2.181,2.848-4.04,4.768-6.04Z" style="fill: #fff; fill-rule: evenodd;"/>
      <path d="M3825.287,750.486h.636c4.039,5.781,7.233,13.81,11.763,19.711,.422,.551,1.453,1.573,.953,2.226-8.258-3.302-13.739-11.048-13.352-21.937Z" style="fill-rule: evenodd;"/>
      <path d="M3835.263,751.967c.512-.089,.546,.3,.954,.318,2.221,6.786,7.426,10.588,9.854,17.168-7.399-1.825-10.623-9.506-10.808-17.485Z" style="fill-rule: evenodd;"/>
      <path d="M3904.963,757.01c1.659,1.945-.686,7.893,1.907,8.902,1.932-.188,2.569-1.67,4.769-1.589,1.227,2.681-1.988,4.773-1.59,7.629,.339,2.437,3.794,3.527,2.544,8.267-.767,2.906-3.901,2.709-5.405,6.04,.545,2.635,4.643,1.716,5.723,3.814-2.443,3.205-7.268,5.816-1.271,8.902-.763,1.886-3.809,1.491-4.452,3.498,.042,.591,.21,1.061,.637,1.271-2.461,.987-7.175,1.137-8.584-.319-1.228,.045-1.302,1.241-1.273,2.544-3.327,1.162-8.754,1.414-9.854-1.908,1.147-1.078,3.173-1.278,4.133-2.543-.678-4.091-7.127-2.409-6.676-7.629,1.131-.989,3.523-.717,5.087-1.273-1.063-2.854-4.542-3.3-5.087-6.675,1.283-.626,3.549-.265,4.451-1.273-1.352-3.522-5.276-4.474-6.041-8.584,1.415-1.199,2.793-.551,5.086-.635-1.204-2.95-4.607-5.325-3.813-9.219,2.49,.054,2.791,2.297,5.404,2.225,.341-1.99-1.912-3.978-1.272-7.311,1.256-.909,2.201,2.798,4.132,2.225,2.055-.61,.59-3.416,2.225-5.085,2.157,.891,2.265,3.594,4.452,3.496,2.291-.102,2.584-3.589,4.769-4.768Z" style="fill: #fff; fill-rule: evenodd;"/>
      <path d="M3856.004,800.564c3.763-.377,5.605,4.076,3.456,8.067-2.663,5.184-5.987,5.373-8.224,4.014,1.625-3.991,3.395-7.836,4.768-12.081Z" style="fill: #fff; fill-rule: evenodd;"/>
      <path d="M3901.147,807.242h.637c1.25,.73,.541,2.51,.635,3.814,.267,3.679,1.624,8.628-.318,10.81-1.658-3.339-1.344-10.294-.954-14.624Z" style="fill: #fff; fill-rule: evenodd;"/>
      <path d="M3902.419,824.725c2.218,.193,4.261,.286,5.722,2.861,.072,7.492-2.121,13.891-7.23,16.202-2.538-1.516-4.144-5.375-7.394-13.34,1.248-2.673,2.417-5.425,6.04-5.723,.313,1.597,1.478,2.336,1.271,4.452-1.025,.667-2.931,.459-3.496,1.588,1.928,6.801,10.177-2.53,5.087-6.039Z" style="fill: #fff; fill-rule: evenodd;"/>
      <path d="M3845.196,825.044c5.559,1.021,11.442,5.472,14.941,9.855,1.428,1.789,2.845,4.862,4.769,7.311,1.56,1.988,4.651,5.842,6.04,6.04,3.057,.439,9.084-5.5,11.125-6.993,3.945-2.886,6.618-5.281,10.175-7.63,1.919,3.803,5.047,8.055,7.13,11.694-3.227,5.306-19.603,19.463-23.642,19.191-3.8-.258-8.643-4.817-11.465-7.042-3.449-2.719-6.414-4.945-10.174-6.677-1.878,4.487-.575,11.358,0,16.214-3.993-.321-4.975-5.326-6.041-8.902-2.554-8.572-3.632-20.219-2.86-32.109v-.954Z" style="fill: #fff; fill-rule: evenodd;"/>
      <path d="M3832.479,828.541c-.652,5.265-.119,12.073-.636,18.438-7.117-.003-15.198,1.052-21.3-.635-.21-7.308,2.1-12.098,3.18-18.121,5.511,.694,13.149,1.727,18.756,.318Z" style="fill: #fff; fill-rule: evenodd;"/>
      <path d="M3838.838,872.732c2.609,2.508,1.908,7.176,1.908,10.808,0,4.044,.024,8.222-.955,11.445-1.169,3.845-5.974,10.339-9.218,10.809-8.558,1.239-19.616-1.527-22.254-8.583-1.599-4.274-1.115-20.183,.317-24.478,6.086,1.426,18.244,4.857,25.75,2.86,2.106-.559,2.779-2.051,4.453-2.86Zm-22.573,27.975c2.249,1.025,11.134,2.135,13.67,1.589,2.457-.527,5.964-5.142,6.994-7.947,1.911-5.208,.756-12.504,.954-18.123-7.512,3.362-20.28,1.115-27.658-.635,1.071,11.438-1.632,21.622,6.039,25.115Z" style="fill-rule: evenodd;"/>
      <path d="M3810.225,875.591c7.378,1.75,20.146,3.997,27.658,.635-.199,5.618,.956,12.915-.954,18.123-1.03,2.805-4.537,7.419-6.994,7.947-2.537,.545-11.421-.564-13.67-1.589-7.671-3.493-4.968-13.677-6.039-25.115Z" style="fill: #f7a1a1; fill-rule: evenodd;"/>
      <path d="M3853.144,875.591c-.42,6.384,2.587,12.013,3.496,18.121-1.533,.375-2.84,.975-4.768,.954v-18.44c.471-.165,.8-.469,1.272-.635Z" style="fill: #fff; fill-rule: evenodd;"/>
      <path d="M3797.508,879.407c.478,2.387-.474,6.093-.954,8.583-3.695-1.98-.716-6.549,.954-8.583Z" style="fill: #fff; fill-rule: evenodd;"/>
      <path d="M3854.097,897.527h.636c-1.013,4.209,.251,9.088-.318,13.99-.291,2.504-1.646,5.096-1.907,7.629-1.079,10.451,.379,21.714-.318,32.745-.674,10.66-1.072,21.048-2.544,30.519-4.012-1.12-7.993,.462-11.762,.636-2.036-17.569-4.883-34.326-5.087-53.727,7.495,.506,11.17-1.689,17.166-1.272,2.822-1.753,1.77-6.09,1.91-9.537,.291-7.301-.076-15.55,.636-20.664,.736,.102,1.219-.052,1.589-.318Z" style="fill: #fff; fill-rule: evenodd;"/>
      <path d="M3800.688,926.776c4.55,2.337,11.121,2.656,17.803,2.861-.9,17.222-2.489,36.507-3.179,54.998-4.499,.478-9.119,.289-13.67,0-2.255-17.992-.657-39.353-.954-57.86Z" style="fill: #fff; fill-rule: evenodd;"/>
      <path d="M3849.962,986.224c1.23,11.252-7.922,10.538-16.847,13.036-4.119,1.15-8.082,3.985-11.127,1.272-.072-8.04,7.996-10.641,13.352-14.308,4.328,2.333,9.651-1.21,14.623,0Z" style="fill: #fff; fill-rule: evenodd;"/>
      <path d="M3815.947,987.178v10.809c-5.525,2.182-16.662,4-23.844,3.498-2.727-.192-6.356-1.409-6.675-3.498-.899-5.848,11.886-7.09,13.989-10.49,5.212,1.804,11.089,.242,16.531-.318Z" style="fill: #fff; fill-rule: evenodd;"/>
    </g>
    <g>
      <path d="M3837.079,797.188c-.337,2.393-1.836,4.161-3.346,3.948-1.513-.211-2.464-2.324-2.127-4.717,.337-2.393,1.835-4.16,3.347-3.948,1.509,.212,2.462,2.325,2.126,4.717Z" style="fill-rule: evenodd;"/>
      <path d="M3836.096,794.802c.712,.184,1.726-.172,2.368-.461,.5-.223,1.115-.892,1.665-.74,.079,1.811-2.61,2.957-4.017,3.297l-.016-2.095Z" style="fill-rule: evenodd;"/>
    </g>
    <g>
      <path d="M3811.226,793.512c-.336,2.393-1.835,4.161-3.346,3.948-1.51-.213-2.464-2.324-2.126-4.718,.336-2.393,1.834-4.16,3.345-3.946,1.51,.212,2.462,2.324,2.127,4.716Z" style="fill-rule: evenodd;"/>
      <path d="M3810.244,791.125c.712,.184,1.726-.171,2.368-.461,.498-.225,1.112-.892,1.664-.74,.079,1.81-2.609,2.956-4.018,3.297l-.014-2.095Z" style="fill-rule: evenodd;"/>
    </g>
    <path d="M3813.459,807.61s.802,3.731,5.612,4.191c0,0,4.18,1.001,7.446-1.714,0,0-.443,3.996-7.609,3.242,0,0-6.041-.079-5.449-5.719Z" style="fill-rule: evenodd;"/>
    <path d="M3808.542,802.139c.252,2.084-1.232,3.978-3.314,4.231-2.083,.253-3.979-1.231-4.231-3.315-.253-2.083,1.231-3.977,3.315-4.229,2.083-.253,3.975,1.231,4.23,3.313Z" style="fill: #fbd0d5; fill-rule: evenodd;"/>
    <path d="M3840.191,806.805c.253,2.083-1.231,3.979-3.315,4.231-2.084,.253-3.977-1.231-4.229-3.315-.254-2.082,1.231-3.976,3.313-4.229,2.084-.253,3.978,1.232,4.23,3.313Z" style="fill: #fbd0d5; fill-rule: evenodd;"/>
  </g>
  <path id="cloud1" d="M2453.121,454.959c-.507,2.146-1.637,3.247-3.81,3.162-6.944-.226-13.86,.565-20.862,.396-9.653-.254-19.39-.735-29.016-.142-12.393,.762-24.729,.425-37.12,.508-6.69,.057-13.408,.396-20.07,.029-10.839-.622-21.62-.113-32.461,.168-9.51,.283-19.053-.507-28.594-.733-5.841-.141-11.685-.283-17.529-.17-2.963,.057-5.927,.622-8.89,.903-6.211,.594-12.393,1.158-19.279,1.779,0-3.049-.141-5.532,.028-8.017,.281-4.515,1.017-9.004,1.072-13.521,.086-6.209,1.158-12.108,3.755-17.726,2.428-5.222,4.319-10.782,8.383-15.129,3.782-4.064,7.762-7.875,12.788-10.445,.366-.197,.846-.339,1.1-.62,6.07-6.747,14.086-4.827,21.623-4.772,1.356,.029,2.682,.904,4.008,1.384,6.577,2.4,11.602,6.973,16.823,11.431,3.528,2.992,6.55,6.295,8.468,10.529,.593,1.271,1.072,2.626,1.384,3.98,1.045,4.404,2.004,8.807,2.993,13.295q4.741,.17,5.56-2.992c.141-.536,.141-1.185,.452-1.608,4.317-6.125,8.157-12.702,14.761-16.796,2.032-1.269,3.925-2.823,6.042-3.866,10.641-5.222,21.846-6.098,33.082-2.823,9.003,2.624,16.399,7.79,19.957,17.105,1.607,4.234,4.149,8.045,4.796,12.702,.397,2.711,3.247,3.218,5.166,1.13,.876-.932,1.356-2.203,2.23-3.105,5.816-5.928,12.986-7.762,21.03-6.774,2.542,.31,5.053,.903,7.564,1.326,4.377,.678,8.016,2.879,11.349,5.589,.901,.762,1.58,2.06,1.919,3.218,2.062,6.747,2.993,13.578,1.298,20.605Z" style="fill: #dcf1ff;"/>
  <path id="cloud3" d="M2112.335,357.181c-5.196-.48-9.88-.875-14.566-1.328-2.258-.226-4.488-.677-6.718-.706-4.432-.056-8.835,.029-13.24,.142-7.197,.168-14.425,.761-21.623,.564-8.157-.226-16.313-.62-24.5-.141-5.053,.283-10.105,.028-15.158-.029-9.342-.056-18.687,.198-28.056-.367-7.255-.452-14.624-.113-21.907,.084-5.279,.142-10.5-.451-15.751-.281-1.637,.056-2.511-.791-2.878-2.4-1.271-5.306-.592-10.445,.959-15.554,.281-.875,.791-1.862,1.469-2.427,2.511-2.061,5.276-3.726,8.551-4.234,1.921-.31,3.812-.762,5.731-1.016,6.07-.735,11.49,.649,15.892,5.137,.651,.678,1.017,1.637,1.665,2.343,1.469,1.581,3.614,1.185,3.925-.846,.48-3.528,2.398-6.408,3.611-9.598,2.71-7.028,8.273-10.923,15.073-12.927,8.499-2.456,16.936-1.807,24.983,2.117,1.61,.79,3.021,1.975,4.573,2.934,4.995,3.105,7.903,8.074,11.15,12.675,.223,.339,.254,.819,.336,1.242q.623,2.371,4.206,2.259c.764-3.417,1.469-6.719,2.258-10.049,.256-1.017,.593-2.061,1.045-3.021,1.442-3.189,3.727-5.673,6.409-7.96,3.923-3.331,7.735-6.803,12.702-8.609,.987-.368,2.004-1.045,3.019-1.045,5.703-.029,11.743-1.497,16.316,3.585,.226,.226,.565,.31,.846,.48,3.785,1.947,6.803,4.827,9.684,7.875,3.049,3.302,4.488,7.48,6.321,11.461,1.949,4.205,2.767,8.694,2.823,13.351,.058,3.415,.592,6.831,.819,10.246,.113,1.864,.03,3.754,.03,6.041Z" style="fill: #dcf1ff;"/>
  <path id="cloud2" d="M2602.335,283.181c-5.196-.48-9.88-.875-14.566-1.328-2.258-.226-4.488-.677-6.718-.706-4.432-.056-8.835,.029-13.24,.142-7.197,.168-14.425,.761-21.623,.564-8.157-.226-16.313-.62-24.5-.141-5.053,.283-10.105,.028-15.158-.029-9.342-.056-18.687,.198-28.056-.367-7.255-.452-14.624-.113-21.907,.084-5.279,.142-10.5-.451-15.751-.281-1.637,.056-2.511-.791-2.878-2.4-1.271-5.306-.592-10.445,.959-15.554,.281-.875,.791-1.862,1.469-2.427,2.511-2.061,5.276-3.726,8.551-4.234,1.921-.31,3.812-.762,5.731-1.016,6.07-.735,11.49,.649,15.892,5.137,.651,.678,1.017,1.637,1.665,2.343,1.469,1.581,3.614,1.185,3.925-.846,.48-3.528,2.398-6.408,3.611-9.598,2.71-7.028,8.273-10.923,15.073-12.927,8.499-2.456,16.936-1.807,24.983,2.117,1.61,.79,3.021,1.975,4.573,2.934,4.995,3.105,7.903,8.074,11.15,12.675,.223,.339,.254,.819,.336,1.242q.623,2.371,4.206,2.259c.764-3.417,1.469-6.719,2.258-10.049,.256-1.017,.593-2.061,1.045-3.021,1.442-3.189,3.727-5.673,6.409-7.96,3.923-3.331,7.735-6.803,12.702-8.609,.987-.368,2.004-1.045,3.019-1.045,5.703-.029,11.743-1.497,16.316,3.585,.226,.226,.565,.31,.846,.48,3.785,1.947,6.803,4.827,9.684,7.875,3.049,3.302,4.488,7.48,6.321,11.461,1.949,4.205,2.767,8.694,2.823,13.351,.058,3.415,.592,6.831,.819,10.246,.113,1.864,.03,3.754,.03,6.041Z" style="fill: #dcf1ff;"/>
</svg>